<svg xmlns="http://www.w3.org/2000/svg" viewBox="0 0 640 640" role="img" aria-labelledby="title desc">
  <title id="title">JMR · El Roble en el Foso</title><desc id="desc">Roble con monograma JMR rodeado por un foso y torres.</desc>
  <defs><linearGradient id="leaf" x1="0" y1="0" x2="1" y2="1"><stop stop-color="#9aa85b"/><stop offset="1" stop-color="#254832"/></linearGradient><linearGradient id="stone"><stop stop-color="#d8c7a2"/><stop offset="1" stop-color="#8b7657"/></linearGradient></defs>
  <ellipse cx="320" cy="548" rx="270" ry="48" fill="#155e75" stroke="#c8a96b" stroke-width="12"/>
  <path d="M92 535 Q320 410 548 535" fill="none" stroke="url(#stone)" stroke-width="38"/>
  <path d="M138 510V398h70v100M432 498V398h70v112" fill="url(#stone)" stroke="#6e5a42" stroke-width="7"/>
  <path d="M160 398h26v-36h18v36h26v-36h18v36h24M434 398h26v-36h18v36h26v-36h18v36h24" fill="none" stroke="#6e5a42" stroke-width="8"/>
  <path d="M320 428 C286 365 279 260 320 150 C361 260 354 365 320 428Z" fill="#5c3924" stroke="#c8a96b" stroke-width="6"/>
  <path d="M320 260 C265 190 170 242 126 180 C220 126 281 148 320 199 C359 148 420 126 514 180 C470 242 375 190 320 260Z" fill="url(#leaf)" stroke="#c8a96b" stroke-width="6"/>
  <path d="M320 205 C282 122 218 102 164 120 C210 55 287 70 320 135 C353 70 430 55 476 120 C422 102 358 122 320 205Z" fill="url(#leaf)" stroke="#c8a96b" stroke-width="6"/>
  <text x="320" y="342" text-anchor="middle" fill="#f2d28b" font-family="Georgia,serif" font-size="62" font-weight="700" letter-spacing="3">JMR</text>
  <path d="M270 452h100v78H270z" fill="#4b2f1d" stroke="#c8a96b" stroke-width="7"/><path d="M270 452l50-45 50 45" fill="#c8a96b" stroke="#4b2f1d" stroke-width="7"/>
</svg>
